<mxfile host="app.diagrams.net" modified="2023-11-25T08:56:12.998Z" agent="Mozilla/5.0 (Macintosh; Intel Mac OS X 10_15_7) AppleWebKit/605.1.15 (KHTML, like Gecko) Version/17.0 Safari/605.1.15" etag="l-GEsFjj27NsP8T8q40t" version="22.1.4" type="github">
  <diagram name="Страница — 1" id="p_GWqLbjNePEwH5LrEB8">
    <mxGraphModel dx="954" dy="599" grid="1" gridSize="10" guides="1" tooltips="1" connect="1" arrows="1" fold="1" page="1" pageScale="1" pageWidth="827" pageHeight="1169" math="0" shadow="0">
      <root>
        <mxCell id="0" />
        <mxCell id="1" parent="0" />
        <mxCell id="tYkbgo62yAJlWN4EVD0--17" style="edgeStyle=orthogonalEdgeStyle;rounded=0;orthogonalLoop=1;jettySize=auto;html=1;exitX=0.5;exitY=1;exitDx=0;exitDy=0;" edge="1" parent="1" source="tYkbgo62yAJlWN4EVD0--1" target="tYkbgo62yAJlWN4EVD0--2">
          <mxGeometry relative="1" as="geometry" />
        </mxCell>
        <mxCell id="tYkbgo62yAJlWN4EVD0--1" value="Портфель проектов" style="rounded=0;whiteSpace=wrap;html=1;" vertex="1" parent="1">
          <mxGeometry x="120" y="40" width="580" height="60" as="geometry" />
        </mxCell>
        <mxCell id="tYkbgo62yAJlWN4EVD0--16" style="edgeStyle=orthogonalEdgeStyle;rounded=0;orthogonalLoop=1;jettySize=auto;html=1;entryX=0.5;entryY=0;entryDx=0;entryDy=0;" edge="1" parent="1" source="tYkbgo62yAJlWN4EVD0--2" target="tYkbgo62yAJlWN4EVD0--5">
          <mxGeometry relative="1" as="geometry" />
        </mxCell>
        <mxCell id="tYkbgo62yAJlWN4EVD0--2" value="Проект 1" style="rounded=0;whiteSpace=wrap;html=1;" vertex="1" parent="1">
          <mxGeometry x="120" y="140" width="270" height="60" as="geometry" />
        </mxCell>
        <mxCell id="tYkbgo62yAJlWN4EVD0--3" value="Проект 2" style="rounded=0;whiteSpace=wrap;html=1;" vertex="1" parent="1">
          <mxGeometry x="430" y="140" width="270" height="60" as="geometry" />
        </mxCell>
        <mxCell id="tYkbgo62yAJlWN4EVD0--15" style="edgeStyle=orthogonalEdgeStyle;rounded=0;orthogonalLoop=1;jettySize=auto;html=1;exitX=0.5;exitY=1;exitDx=0;exitDy=0;" edge="1" parent="1" source="tYkbgo62yAJlWN4EVD0--5" target="tYkbgo62yAJlWN4EVD0--9">
          <mxGeometry relative="1" as="geometry" />
        </mxCell>
        <mxCell id="tYkbgo62yAJlWN4EVD0--5" value="Задача 1" style="rounded=0;whiteSpace=wrap;html=1;" vertex="1" parent="1">
          <mxGeometry x="120" y="240" width="120" height="60" as="geometry" />
        </mxCell>
        <mxCell id="tYkbgo62yAJlWN4EVD0--6" value="Задача 2" style="rounded=0;whiteSpace=wrap;html=1;" vertex="1" parent="1">
          <mxGeometry x="270" y="240" width="120" height="60" as="geometry" />
        </mxCell>
        <mxCell id="tYkbgo62yAJlWN4EVD0--7" value="Задача 1" style="rounded=0;whiteSpace=wrap;html=1;" vertex="1" parent="1">
          <mxGeometry x="430" y="240" width="120" height="60" as="geometry" />
        </mxCell>
        <mxCell id="tYkbgo62yAJlWN4EVD0--8" value="Задача 1" style="rounded=0;whiteSpace=wrap;html=1;" vertex="1" parent="1">
          <mxGeometry x="580" y="240" width="120" height="60" as="geometry" />
        </mxCell>
        <mxCell id="tYkbgo62yAJlWN4EVD0--13" style="edgeStyle=orthogonalEdgeStyle;rounded=0;orthogonalLoop=1;jettySize=auto;html=1;" edge="1" parent="1" source="tYkbgo62yAJlWN4EVD0--9" target="tYkbgo62yAJlWN4EVD0--11">
          <mxGeometry relative="1" as="geometry" />
        </mxCell>
        <mxCell id="tYkbgo62yAJlWN4EVD0--14" style="edgeStyle=orthogonalEdgeStyle;rounded=0;orthogonalLoop=1;jettySize=auto;html=1;" edge="1" parent="1" source="tYkbgo62yAJlWN4EVD0--9" target="tYkbgo62yAJlWN4EVD0--12">
          <mxGeometry relative="1" as="geometry" />
        </mxCell>
        <mxCell id="tYkbgo62yAJlWN4EVD0--9" value="Заказ 1" style="rounded=0;whiteSpace=wrap;html=1;" vertex="1" parent="1">
          <mxGeometry x="70" y="340" width="120" height="60" as="geometry" />
        </mxCell>
        <mxCell id="tYkbgo62yAJlWN4EVD0--11" value="Оплата 1" style="rounded=0;whiteSpace=wrap;html=1;" vertex="1" parent="1">
          <mxGeometry y="440" width="120" height="60" as="geometry" />
        </mxCell>
        <mxCell id="tYkbgo62yAJlWN4EVD0--12" value="Оплата 1" style="rounded=0;whiteSpace=wrap;html=1;" vertex="1" parent="1">
          <mxGeometry x="150" y="440" width="120" height="60" as="geometry" />
        </mxCell>
      </root>
    </mxGraphModel>
  </diagram>
</mxfile>
